inDegrees=no
num_controls=7
num_derivatives=13
num_iterations=127
num_multipliers=7
num_parameters=0
num_slacks=7
num_states=26
objective=5.144994
objective_accelerations=0.408629
objective_balance=0.106417
objective_effort=0.317520
objective_height=4.250824
objective_ligament=0.061604
solver_duration=1452.808786
status=Solve_Succeeded
success=true
DataType=double
version=3
OpenSimVersion=4.4-2022-07-23-0e9fedc
endheader
time	/jointset/ground_pelvis/pelvis_tilt/value	/jointset/ground_pelvis/pelvis_tx/value	/jointset/ground_pelvis/pelvis_ty/value	/jointset/hip_l/hip_flexion_l/value	/jointset/hip_l/hip_adduction_l/value	/jointset/hip_l/hip_rotation_l/value	/jointset/back/lumbar_extension/value	/jointset/patellofemoral_l/patellar_flexion_l/value	/jointset/knee_l/knee_flexion_l/value	/jointset/knee_l/knee_adduction_l/value	/jointset/knee_l/knee_rotation_l/value	/jointset/ankle_l/ankle_angle_l/value	/jointset/subtalar_l/subtalar_angle_l/value	/jointset/ground_pelvis/pelvis_tilt/speed	/jointset/ground_pelvis/pelvis_tx/speed	/jointset/ground_pelvis/pelvis_ty/speed	/jointset/hip_l/hip_flexion_l/speed	/jointset/hip_l/hip_adduction_l/speed	/jointset/hip_l/hip_rotation_l/speed	/jointset/back/lumbar_extension/speed	/jointset/patellofemoral_l/patellar_flexion_l/speed	/jointset/knee_l/knee_flexion_l/speed	/jointset/knee_l/knee_adduction_l/speed	/jointset/knee_l/knee_rotation_l/speed	/jointset/ankle_l/ankle_angle_l/speed	/jointset/subtalar_l/subtalar_angle_l/speed	/forceset/tau_hip_flexion_l	/forceset/tau_hip_adduction_l	/forceset/tau_hip_rotation_l	/forceset/tau_knee_flexion_l	/forceset/tau_ankle_angle_l	/forceset/tau_subtalar_angle_l	/forceset/tau_lumbar_extension	lambda_cid13_p0	lambda_cid13_p1	lambda_cid13_p2	lambda_cid13_p3	lambda_cid13_p4	lambda_cid13_p5	lambda_cid14_p0	/jointset/ground_pelvis/pelvis_tilt/accel	/jointset/ground_pelvis/pelvis_tx/accel	/jointset/ground_pelvis/pelvis_ty/accel	/jointset/hip_l/hip_flexion_l/accel	/jointset/hip_l/hip_adduction_l/accel	/jointset/hip_l/hip_rotation_l/accel	/jointset/back/lumbar_extension/accel	/jointset/patellofemoral_l/patellar_flexion_l/accel	/jointset/knee_l/knee_flexion_l/accel	/jointset/knee_l/knee_adduction_l/accel	/jointset/knee_l/knee_rotation_l/accel	/jointset/ankle_l/ankle_angle_l/accel	/jointset/subtalar_l/subtalar_angle_l/accel	gamma_cid13_p0	gamma_cid13_p1	gamma_cid13_p2	gamma_cid13_p3	gamma_cid13_p4	gamma_cid13_p5	gamma_cid14_p0
1	-0.4127085901827103	-0.01434002803368569	0.6956957580281079	1.431994558159058	-0.2969129589843038	0.110357715153475	-0.4363074783469358	1.113492010735287	1.113492010735426	-0.1745071820304471	0.1745230774875499	0.2959607414877996	0.01659402228125626	-0.00948445592940656	-0.0003598924951154982	-0.003268222400892877	0.01673692271576831	0.0004220621167260677	0.002967496996006455	-0.003745913067819541	0.008470268578244506	0.008470268578244761	-3.382319800246559e-05	3.606217888142936e-05	0.001707349676306506	0.0008599965977861594	-0.3016944782015279	0.04595730574266452	-0.02216180614610826	-0.2731288031823977	-0.02666751704183749	0.03756995363478171	0.276108521448178	-51.45637655937345	-8.297104174558489	2.051312400267927	17.13508172001908	-699.3296204753647	-47.88611589256794	-3.297908294100712	1.077903672191379	0.03123227152602633	1.214410795091507	-4.329840429801531	-0.2453033807658776	-1.523329930521304	0.2531308487303259	-4.402359339392615	-4.402359339391975	-0.03959848514143133	0.00604406951681015	-1.436448500008619	-0.6176731784344963	2.282081179125071e-09	1.626296893369129e-11	-3.870532934300186e-09	-4.069556769191007e-09	2.003566526983349e-09	-3.140114378813096e-09	7.470383934105517e-10
1.01	-0.412750061122649	-0.01434215298815818	0.6957236383289033	1.431946441831196	-0.2969203306886762	0.1103104468819461	-0.4363320404427802	1.11335712275948	1.113357122759481	-0.1745076244677069	0.1745232207323443	0.2959061846038086	0.01657268724814213	0.00118021886963648	-7.153163116610852e-05	0.008837392630907812	-0.02632994778592553	-0.001894606985148463	-0.01241967610454352	-0.00119217619682174	-0.0354371449897194	-0.03543714498971885	-5.213126543600445e-05	-6.705083593868506e-06	-0.01262834707352146	-0.005126479407446385	-0.30128535374833	0.04590917519184386	-0.02217098627356498	-0.2731178384591157	-0.02650404065597159	0.03756533976142306	0.2757360381944234	-51.38245634090831	-8.310529237793411	2.05629257321012	17.1470848648398	-698.931578745236	-47.91026642816024	-3.303309420601852	1.059241751598127	0.02667293106412709	1.207602683026269	-4.290574621277706	-0.2245824326432429	-1.546193319016865	0.2526446037680763	-4.383323756626479	-4.383323756626932	0.01743141899921538	-0.009335224656140461	-1.433573272743335	-0.5890570281454981	-2.06104996398941e-09	-1.203001729704985e-08	2.249329507760523e-08	-4.260715235097159e-10	-3.369775297063264e-09	-6.734628364855216e-09	-3.933428064298398e-09
1.02	-0.4126851868410304	-0.01434158734654434	0.6958723679451769	1.431468563946031	-0.2969508158356325	0.1101093504156247	-0.4363318352710938	1.112783482369756	1.112783482369735	-0.17450817430805	0.1745229566844719	0.2957079821502683	0.01649150301166031	0.01178458838211088	0.0001782267221495174	0.02090164069465534	-0.06921538872464582	-0.004200626396849356	-0.0277981419728913	0.001207540573499488	-0.07928021420281439	-0.07928021420281593	-5.530387109603922e-05	-4.539636712415156e-05	-0.02702176423428745	-0.0111098440757852	-0.3008762292957036	0.04586104464110457	-0.02218016640170345	-0.27310687373576	-0.02634056426998799	0.03756072588820631	0.2753635549400726	-51.3186698248788	-8.321634162904671	2.06027887606142	17.20231383540239	-698.6620390474632	-47.90932906960285	-3.326281180590767	1.065842614877713	0.02351176939922223	1.206137401480866	-4.293554517206791	-0.2431734427310909	-1.521588484081015	0.2223268285956208	-4.38949046841881	-4.389490468418642	-0.03657139278650496	0.006859265305805917	-1.447992582196285	-0.6170509110556861	-7.602183922560746e-09	-2.29979547664953e-08	4.868236064578285e-08	5.914687745631596e-09	-1.019114603597755e-08	-9.036951068803544e-09	-8.467514143872246e-09
1.03	-0.4125145711499074	-0.01433846218641466	0.6961415683657685	1.430562371756372	-0.2970043129969343	0.1097545699806386	-0.4363069376432154	1.111771748843929	1.111771748843899	-0.1745087702165466	0.1745223530311598	0.295365951597182	0.0163506058097345	0.02232778462277052	0.0004658361553119606	0.03293511956074335	-0.112029083756451	-0.006497278797933023	-0.0431517419023769	0.003893632563011097	-0.1230545808532305	-0.123054580853234	-6.923007702757056e-05	-7.188207088482538e-05	-0.04135469198279069	-0.01705832265611072	-0.3015742393371445	0.04599513846021316	-0.0221762653311212	-0.2725388995215813	-0.02651268602442916	0.03767404952975087	0.2760887462441761	-51.3784164795425	-8.37509267295756	2.08559655194398	17.00233310932937	-698.9478608186629	-47.92506621108956	-3.366476155443375	1.046942976539928	0.03424265295700249	1.201451102806684	-4.276182999340303	-0.2226918814608115	-1.541327452281566	0.3099975097832099	-4.369620619081833	-4.369620619082314	0.01538882216189467	-0.006899474998852372	-1.421495351653585	-0.5820587141177871	-1.315554239965716e-08	-3.39548887380169e-08	7.486964292371834e-08	1.228297021909394e-08	-1.70272925801456e-08	-1.132608814742438e-08	-1.300010654611818e-08
